<svg xmlns="http://www.w3.org/2000/svg" viewBox="0 0 200 200">
    <defs>
        <linearGradient id="songGrad" x1="0%" y1="0%" x2="100%" y2="100%">
            <stop offset="0%" style="stop-color:#FF9900;stop-opacity:1" />
            <stop offset="100%" style="stop-color:#FF6600;stop-opacity:1" />
        </linearGradient>
    </defs>
    <rect width="200" height="200" fill="#f8f9fa"/>
    <circle cx="100" cy="100" r="80" fill="url(#songGrad)" opacity="0.1"/>
    <!-- Musical Note path -->
    <path d="M70 140 C 70 151 61 160 50 160 C 39 160 30 151 30 140 C 30 129 39 120 50 120 C 54 120 58 121 61 123 L 61 40 L 150 20 L 150 120 C 150 131 141 140 130 140 C 119 140 110 131 110 120 C 110 109 119 100 130 100 C 134 100 138 101 141 103 L 141 50 L 70 65 L 70 140 Z" fill="#FF6600"/>
</svg>
